<svg xmlns="http://www.w3.org/2000/svg" xmlns:xlink="http://www.w3.org/1999/xlink" width="1000" zoomAndPan="magnify" viewBox="0 0 750 225" height="300" preserveAspectRatio="xMidYMid meet" version="1.0"><defs><clipPath id="59f56cb47f"><path d="M 34.992188 96 L 715.242188 96 L 715.242188 212 L 34.992188 212 Z M 34.992188 96 " clip-rule="nonzero"/></clipPath><clipPath id="9cdf8313d3"><path d="M 180 8 L 274.902344 8 L 274.902344 35 L 180 35 Z M 180 8 " clip-rule="nonzero"/></clipPath></defs><g clip-path="url(#59f56cb47f)"><path fill="#000000" d="M 541.183594 96.976562 C 537.394531 98.289062 532.207031 103.167969 503.074219 132.839844 L 496.628906 139.402344 L 495.171875 139.371094 C 494.371094 139.351562 491.9375 139.191406 489.761719 139.007812 C 483.472656 138.488281 476.089844 138.140625 460.402344 137.625 C 452 137.347656 432.988281 137.359375 426.050781 137.644531 C 420.839844 137.859375 420.121094 137.839844 416.203125 137.4375 C 408.464844 136.636719 406.28125 137.035156 405.09375 139.464844 C 403.925781 141.863281 405.050781 144.222656 411.429688 152.757812 C 424.992188 170.902344 431.511719 181.457031 437.140625 194.382812 L 437.964844 196.269531 L 435.339844 196.625 C 428.253906 197.574219 422.464844 197.644531 420.3125 196.796875 C 417.960938 195.878906 417.511719 194.921875 417.09375 190.019531 C 416.199219 179.390625 412.691406 175.246094 403.144531 173.542969 C 394.1875 171.9375 386.902344 174.046875 370.058594 183.125 C 343.496094 197.4375 334.300781 198.6875 315.960938 190.488281 C 297.589844 182.273438 287.777344 180.894531 265.835938 183.453125 C 258.808594 184.269531 245.882812 186.363281 243.320312 187.097656 C 243.058594 187.175781 242.890625 186.953125 242.644531 186.199219 C 241.027344 181.351562 234.574219 177.589844 225.96875 176.472656 C 215.738281 175.148438 203.789062 176.585938 177.765625 182.285156 C 156.332031 186.976562 149.105469 188.421875 140.917969 189.65625 C 119.328125 192.914062 105.484375 191.148438 99.042969 184.320312 C 97.855469 183.0625 96.316406 180.660156 96.574219 180.472656 C 96.628906 180.433594 97.65625 179.894531 98.859375 179.28125 C 123.371094 166.71875 139.0625 150.480469 138.363281 138.394531 C 137.5 123.53125 116.542969 127.210938 102.644531 144.667969 C 94 155.527344 89.101562 170.0625 91.351562 178.171875 C 91.472656 178.605469 91.570312 179.035156 91.570312 179.128906 C 91.570312 179.351562 84.8125 182.625 80.953125 184.273438 C 68.089844 189.761719 49.449219 195.59375 43.335938 196.042969 C 42.457031 196.105469 40.277344 196.390625 38.496094 196.667969 C 36.710938 196.949219 35.183594 197.175781 35.097656 197.175781 C 35.011719 197.175781 34.941406 197.363281 34.941406 197.59375 C 34.941406 198.128906 41.203125 198.214844 43.746094 197.714844 C 44.570312 197.550781 46.042969 197.3125 47.015625 197.179688 C 58.210938 195.652344 76.507812 189.828125 90.820312 183.238281 C 91.839844 182.769531 92.6875 182.410156 92.707031 182.441406 C 92.726562 182.472656 93.097656 183.105469 93.53125 183.851562 C 99.453125 193.992188 113.492188 197.402344 137.167969 194.453125 C 144.71875 193.511719 157.402344 191.15625 171.210938 188.125 C 189.121094 184.191406 195.011719 182.984375 201.710938 181.882812 C 220.222656 178.835938 232.65625 179.902344 237.746094 184.96875 C 238.746094 185.960938 239.847656 187.699219 239.585938 187.863281 C 239.539062 187.890625 238.046875 188.28125 236.273438 188.726562 C 214.289062 194.246094 200.539062 202.457031 203.398438 208.359375 C 207.019531 215.839844 233.25 207.730469 240.578125 196.867188 C 241.777344 195.089844 242.617188 193.324219 243.003906 191.789062 C 243.410156 190.171875 242.882812 190.46875 246.683594 189.714844 C 263.851562 186.296875 280.597656 184.800781 290.238281 185.824219 C 297.71875 186.617188 302.667969 188.152344 314.246094 193.269531 C 334.894531 202.394531 343.90625 201.277344 372.097656 186.105469 C 387.238281 177.953125 393.398438 176.015625 401.167969 176.960938 C 409.964844 178.03125 413.011719 181.132812 413.660156 189.679688 C 414.109375 195.542969 415.226562 197.929688 418.25 199.472656 C 424.523438 202.671875 440.324219 200.382812 479.765625 190.542969 C 497.476562 186.125 504.199219 184.894531 510.539062 184.894531 C 515.085938 184.894531 518.386719 185.609375 518.386719 186.597656 C 518.386719 187.675781 514.949219 190.285156 510.058594 192.910156 C 502.425781 197.015625 500.957031 199.007812 503.804688 201.40625 C 506.152344 203.382812 517.265625 204.1875 529.421875 203.253906 C 556.503906 201.179688 583.707031 196.332031 612.597656 188.425781 C 619.953125 186.414062 622.144531 185.941406 624.101562 185.9375 L 625.613281 185.933594 L 625.613281 186.554688 C 625.613281 186.894531 625.230469 188.652344 624.761719 190.457031 C 620.671875 206.25 630.976562 207.855469 641.847656 193.117188 C 645.257812 188.503906 645.648438 188 646.605469 187.042969 C 647.792969 185.855469 648.210938 185.875 648.769531 187.128906 C 649.375 188.492188 649.503906 191.78125 649.054688 194.519531 C 647.617188 203.316406 651.894531 204.0625 682.140625 200.285156 C 697.96875 198.3125 709.773438 195.84375 712.910156 193.851562 C 713.457031 193.503906 713.980469 193.222656 714.066406 193.222656 C 714.3125 193.222656 715.140625 192.296875 715.140625 192.027344 C 715.140625 191.046875 709.042969 191.527344 695.777344 193.550781 C 675.578125 196.632812 663.476562 198.074219 657.570312 198.097656 C 652.167969 198.125 652.390625 198.304688 653.011719 194.390625 C 653.90625 188.785156 652.734375 184.042969 650.070312 182.480469 C 648.945312 181.824219 648.785156 182.558594 651.097656 177.789062 C 652.9375 173.992188 655.394531 168.503906 662.464844 152.410156 C 664.097656 148.6875 666.554688 143.207031 667.929688 140.226562 C 671.464844 132.542969 671.65625 131.941406 671.035156 130.328125 C 670.257812 128.316406 668.769531 128.160156 663.921875 129.59375 C 661.949219 130.179688 661.054688 130.324219 658.820312 130.429688 C 652.992188 130.699219 637.328125 132.167969 623.21875 133.769531 C 618.75 134.277344 611.492188 135.070312 607.082031 135.53125 C 599.023438 136.382812 585.667969 138 585.410156 138.15625 C 585.332031 138.203125 584.253906 138.332031 583.007812 138.441406 C 581.761719 138.550781 580.128906 138.707031 579.375 138.785156 L 578.003906 138.925781 L 575.847656 135.933594 C 574.660156 134.285156 570.40625 128.582031 566.394531 123.257812 C 562.378906 117.929688 557.15625 110.964844 554.785156 107.769531 C 546.761719 96.964844 545.082031 95.628906 541.183594 96.976562 M 542.222656 100.40625 C 542.148438 101.007812 542.246094 106.277344 542.441406 112.117188 C 542.863281 124.746094 542.769531 141.070312 542.246094 146.996094 C 542.070312 149 541.777344 152.417969 541.59375 154.59375 C 541.414062 156.769531 541.21875 158.851562 541.164062 159.21875 L 541.066406 159.882812 L 539.980469 159.78125 C 533.0625 159.136719 530.464844 158.574219 508.914062 153.070312 C 502.617188 151.464844 496.105469 149.839844 494.445312 149.46875 C 492.785156 149.097656 491.390625 148.765625 491.347656 148.734375 C 491.308594 148.707031 492.84375 147.152344 494.761719 145.285156 C 496.679688 143.421875 498.480469 141.53125 498.757812 141.097656 C 499.066406 140.605469 499.371094 140.339844 499.550781 140.40625 C 499.738281 140.480469 499.796875 140.414062 499.71875 140.214844 C 499.65625 140.042969 499.726562 139.914062 499.886719 139.917969 C 500.042969 139.917969 508.507812 131.539062 518.699219 121.296875 C 537.867188 102.035156 540.789062 99.308594 542.273438 99.308594 C 542.320312 99.308594 542.296875 99.800781 542.222656 100.40625 M 545.378906 100.492188 C 546.566406 101.554688 548.214844 103.707031 552.945312 110.347656 C 555.511719 113.953125 560.140625 120.324219 563.230469 124.507812 C 568.460938 131.585938 571.300781 135.519531 576.355469 142.683594 C 578.527344 145.757812 580.300781 148.027344 581.902344 149.78125 L 582.898438 150.871094 L 581.71875 151.199219 C 581.066406 151.378906 578.148438 152.195312 575.230469 153.011719 C 557.257812 158.054688 542.851562 160.917969 543.46875 159.332031 C 547.019531 150.183594 547.371094 116.214844 544.078125 100.171875 C 543.914062 99.355469 544.191406 99.425781 545.378906 100.492188 M 131.246094 134.453125 C 133.027344 135.371094 133.628906 136.574219 133.628906 139.234375 C 133.628906 149.550781 120.046875 163.59375 98.359375 175.703125 C 95.105469 177.519531 95.234375 177.589844 95.246094 174.011719 C 95.308594 157.492188 111.308594 136.730469 126.007812 134.089844 C 127.703125 133.785156 130.289062 133.964844 131.246094 134.453125 M 664.960938 134.582031 C 664.960938 134.628906 664.25 136.242188 663.382812 138.175781 C 656.738281 152.9375 646.433594 179.46875 646.433594 181.816406 C 646.433594 182.03125 646.074219 182.359375 645.546875 182.628906 C 644.421875 183.203125 642.71875 184.972656 641.136719 187.207031 C 636.242188 194.125 634.628906 196.011719 632.007812 197.878906 C 627.011719 201.449219 625.96875 199.003906 628.613281 189.921875 C 629.617188 186.464844 629.566406 185.039062 628.386719 183.640625 C 626.339844 181.207031 623.835938 181.414062 610.832031 185.097656 C 579.597656 193.941406 550.160156 199.058594 523.28125 200.316406 C 515.027344 200.703125 505.894531 200.046875 505.894531 199.066406 C 505.894531 198.832031 508.382812 197.292969 511.25 195.75 C 519.160156 191.492188 521.984375 188.847656 521.664062 186.007812 C 521.183594 181.742188 513.304688 180.101562 501.9375 181.898438 C 496.398438 182.773438 492.339844 183.703125 475.601562 187.910156 C 458.746094 192.144531 449.324219 194.277344 440.671875 195.816406 C 440.160156 195.90625 440.109375 195.867188 440.214844 195.449219 C 440.386719 194.773438 439.753906 190.792969 439.144531 188.679688 C 436.535156 179.683594 429.964844 168.535156 416.78125 150.742188 C 412.707031 145.246094 410.953125 142.769531 410.953125 142.507812 C 410.953125 142.324219 414.523438 142.628906 430.527344 144.1875 C 466.722656 147.710938 486.308594 151.144531 514.015625 158.835938 C 537.59375 165.375 541.222656 165.835938 552.535156 163.730469 C 560.773438 162.191406 577.652344 157.886719 591.570312 153.765625 C 611.28125 147.933594 622.183594 145.050781 643.203125 140.125 C 652.679688 137.90625 657.378906 136.691406 661.628906 135.359375 C 664.066406 134.597656 664.960938 134.386719 664.960938 134.582031 M 633.730469 136.824219 C 617.152344 140.738281 606.707031 143.582031 589.425781 148.882812 C 584.632812 150.355469 585.125 150.324219 584.625 149.199219 C 584.402344 148.691406 583.050781 146.5 581.621094 144.328125 L 579.023438 140.382812 L 585.089844 140.464844 C 597.363281 140.632812 608.082031 139.808594 627.382812 137.226562 C 636.101562 136.058594 637.308594 135.980469 633.730469 136.824219 M 461.027344 141.257812 C 478.429688 141.871094 488.195312 141.847656 493.402344 141.183594 C 495.199219 140.953125 495.273438 141.042969 494.179688 142.179688 C 493.222656 143.164062 490.296875 146.660156 489.550781 147.707031 L 489.132812 148.289062 L 486.199219 147.652344 C 478.898438 146.0625 465.183594 143.683594 451.347656 141.609375 L 447.285156 140.996094 L 449.890625 140.980469 C 451.320312 140.96875 456.332031 141.09375 461.027344 141.257812 M 239.605469 191.632812 C 239.605469 193.5625 235.671875 198.09375 231.691406 200.75 C 224.882812 205.296875 211.710938 208.785156 207.699219 207.105469 C 203.757812 205.453125 216.792969 197.996094 231.386719 193.550781 C 237.6875 191.632812 239.605469 191.183594 239.605469 191.632812 " fill-opacity="1" fill-rule="evenodd"/></g><path fill="#000000" d="M 127.375 93.667969 C 124.945312 93.105469 122.488281 92.703125 120.003906 92.457031 C 117.488281 92.210938 114.964844 92.15625 112.441406 92.292969 C 109.867188 92.4375 107.332031 92.828125 104.832031 93.464844 C 104.515625 93.539062 104.203125 93.628906 103.890625 93.722656 C 103.578125 93.816406 103.265625 93.902344 102.957031 94.003906 C 102.648438 94.109375 102.335938 94.203125 102.027344 94.3125 L 101.105469 94.648438 C 99.875 95.121094 98.675781 95.667969 97.511719 96.285156 C 95.144531 97.539062 92.980469 99.078125 91.023438 100.90625 C 90.902344 101.027344 90.78125 101.132812 90.660156 101.25 L 90.296875 101.605469 C 90.054688 101.835938 89.828125 102.089844 89.597656 102.332031 C 89.363281 102.574219 89.148438 102.828125 88.921875 103.074219 C 88.695312 103.320312 88.484375 103.582031 88.273438 103.84375 C 88.0625 104.105469 87.855469 104.367188 87.652344 104.636719 C 87.554688 104.769531 87.449219 104.902344 87.351562 105.039062 L 87.058594 105.445312 C 86.960938 105.578125 86.863281 105.71875 86.769531 105.855469 C 86.675781 105.996094 86.582031 106.132812 86.488281 106.273438 C 86.308594 106.554688 86.125 106.835938 85.949219 107.121094 C 85.597656 107.691406 85.269531 108.277344 84.957031 108.871094 C 84.910156 108.957031 84.867188 109.042969 84.824219 109.128906 C 84.460938 108.664062 84.082031 108.207031 83.695312 107.757812 C 82.859375 106.804688 81.96875 105.910156 81.019531 105.070312 C 80.058594 104.21875 79.042969 103.445312 77.96875 102.746094 C 76.882812 102.039062 75.742188 101.425781 74.550781 100.914062 C 73.351562 100.398438 72.113281 99.992188 70.839844 99.703125 C 68.292969 99.136719 65.730469 99.046875 63.152344 99.433594 C 61.90625 99.625 60.683594 99.90625 59.480469 100.28125 C 58.300781 100.65625 57.15625 101.101562 56.035156 101.625 C 55.488281 101.890625 54.933594 102.152344 54.40625 102.445312 L 54.007812 102.664062 C 53.875 102.738281 53.738281 102.804688 53.609375 102.886719 L 52.832031 103.347656 C 52.574219 103.5 52.320312 103.664062 52.070312 103.832031 L 51.320312 104.324219 L 50.585938 104.839844 C 50.34375 105.015625 50.101562 105.183594 49.859375 105.367188 L 49.152344 105.90625 L 48.800781 106.179688 L 48.457031 106.460938 L 47.773438 107.023438 C 47.542969 107.210938 47.328125 107.410156 47.105469 107.605469 L 46.445312 108.191406 C 46.222656 108.382812 46.015625 108.589844 45.796875 108.796875 C 45.582031 109 45.371094 109.199219 45.160156 109.402344 C 44.949219 109.601562 44.746094 109.816406 44.539062 110.023438 C 42.894531 111.679688 41.359375 113.429688 39.933594 115.277344 C 41.78125 113.867188 43.625 112.484375 45.511719 111.191406 C 45.753906 111.03125 45.980469 110.863281 46.222656 110.707031 C 46.460938 110.550781 46.707031 110.398438 46.9375 110.242188 C 47.171875 110.082031 47.410156 109.921875 47.652344 109.773438 L 48.378906 109.328125 C 49.347656 108.730469 50.324219 108.167969 51.308594 107.632812 C 51.550781 107.492188 51.804688 107.375 52.054688 107.246094 L 52.800781 106.863281 L 53.554688 106.511719 C 53.804688 106.390625 54.054688 106.269531 54.308594 106.167969 L 55.070312 105.839844 C 55.324219 105.730469 55.582031 105.640625 55.835938 105.539062 C 56.34375 105.328125 56.863281 105.164062 57.375 104.984375 C 57.632812 104.894531 57.894531 104.824219 58.152344 104.742188 L 58.535156 104.621094 L 58.929688 104.519531 C 59.1875 104.453125 59.445312 104.378906 59.707031 104.316406 L 60.488281 104.148438 C 61.515625 103.945312 62.554688 103.808594 63.605469 103.746094 C 65.652344 103.625 67.660156 103.851562 69.628906 104.429688 C 70.59375 104.71875 71.523438 105.085938 72.425781 105.535156 C 72.648438 105.644531 72.871094 105.769531 73.09375 105.886719 C 73.316406 106 73.53125 106.136719 73.75 106.261719 C 73.96875 106.386719 74.179688 106.53125 74.390625 106.671875 L 74.703125 106.882812 C 74.808594 106.953125 74.914062 107.027344 75.015625 107.101562 C 75.851562 107.703125 76.640625 108.351562 77.386719 109.058594 C 77.761719 109.421875 78.128906 109.785156 78.476562 110.160156 C 78.824219 110.539062 79.175781 110.933594 79.515625 111.332031 C 80.183594 112.136719 80.808594 112.976562 81.390625 113.851562 C 81.683594 114.285156 81.960938 114.730469 82.222656 115.175781 C 82.300781 115.308594 82.378906 115.445312 82.453125 115.578125 C 81.921875 115.648438 81.386719 115.730469 80.855469 115.832031 C 80.074219 115.976562 79.292969 116.15625 78.515625 116.378906 C 78.128906 116.488281 77.738281 116.613281 77.351562 116.75 C 76.957031 116.886719 76.570312 117.042969 76.191406 117.222656 C 76.582031 117.371094 76.980469 117.5 77.386719 117.605469 C 77.78125 117.710938 78.179688 117.804688 78.574219 117.882812 C 79.367188 118.042969 80.160156 118.164062 80.949219 118.246094 C 82.515625 118.410156 84.089844 118.460938 85.667969 118.394531 C 87.246094 118.339844 88.808594 118.167969 90.363281 117.882812 C 91.144531 117.742188 91.921875 117.558594 92.703125 117.339844 C 93.089844 117.226562 93.476562 117.101562 93.867188 116.964844 C 94.261719 116.828125 94.648438 116.667969 95.027344 116.488281 C 94.636719 116.339844 94.238281 116.210938 93.832031 116.105469 C 93.433594 116 93.039062 115.90625 92.640625 115.824219 C 91.847656 115.664062 91.058594 115.542969 90.269531 115.460938 C 89.621094 115.390625 88.96875 115.339844 88.320312 115.320312 L 88.363281 115.183594 C 88.4375 114.941406 88.519531 114.683594 88.605469 114.429688 C 88.777344 113.925781 88.976562 113.417969 89.191406 112.917969 C 89.410156 112.414062 89.648438 111.917969 89.894531 111.429688 C 90.140625 110.9375 90.40625 110.453125 90.6875 109.976562 C 91.257812 109.023438 91.882812 108.113281 92.566406 107.242188 C 93.238281 106.363281 93.964844 105.535156 94.746094 104.75 C 97.855469 101.601562 101.785156 99.246094 106.121094 97.738281 C 108.320312 96.972656 110.566406 96.398438 112.859375 96.003906 C 115.203125 95.613281 117.558594 95.363281 119.929688 95.25 C 122.320312 95.140625 124.734375 95.148438 127.160156 95.242188 C 129.589844 95.339844 132.027344 95.53125 134.480469 95.742188 C 132.152344 94.90625 129.785156 94.214844 127.375 93.667969 Z M 127.375 93.667969 " fill-opacity="1" fill-rule="nonzero"/><g clip-path="url(#9cdf8313d3)"><path fill="#000000" d="M 267.820312 9.449219 C 265.386719 8.886719 262.929688 8.484375 260.449219 8.238281 C 257.929688 7.992188 255.410156 7.9375 252.882812 8.074219 C 250.3125 8.21875 247.773438 8.609375 245.277344 9.246094 C 244.960938 9.320312 244.648438 9.410156 244.335938 9.5 C 244.023438 9.59375 243.710938 9.679688 243.402344 9.785156 C 243.09375 9.890625 242.777344 9.984375 242.472656 10.09375 L 241.546875 10.429688 C 240.316406 10.902344 239.121094 11.449219 237.953125 12.066406 C 235.585938 13.316406 233.421875 14.859375 231.464844 16.683594 C 231.34375 16.800781 231.222656 16.914062 231.101562 17.03125 L 230.746094 17.382812 C 230.503906 17.617188 230.277344 17.867188 230.046875 18.109375 C 229.816406 18.351562 229.597656 18.605469 229.371094 18.855469 C 229.148438 19.101562 228.933594 19.363281 228.726562 19.625 C 228.515625 19.886719 228.304688 20.144531 228.105469 20.414062 C 228.003906 20.546875 227.902344 20.679688 227.800781 20.816406 L 227.507812 21.222656 C 227.410156 21.359375 227.316406 21.5 227.222656 21.636719 C 227.125 21.777344 227.03125 21.914062 226.9375 22.054688 C 226.757812 22.335938 226.574219 22.617188 226.402344 22.902344 C 226.050781 23.472656 225.71875 24.058594 225.40625 24.652344 C 225.359375 24.738281 225.320312 24.824219 225.273438 24.90625 C 224.910156 24.445312 224.53125 23.988281 224.144531 23.539062 C 223.308594 22.585938 222.417969 21.691406 221.46875 20.851562 C 220.507812 20 219.492188 19.222656 218.414062 18.519531 C 217.328125 17.8125 216.191406 17.199219 215 16.6875 C 213.800781 16.171875 212.5625 15.769531 211.289062 15.484375 C 208.742188 14.914062 206.179688 14.824219 203.601562 15.214844 C 202.355469 15.402344 201.132812 15.6875 199.929688 16.0625 C 198.75 16.433594 197.601562 16.882812 196.484375 17.402344 C 195.933594 17.671875 195.382812 17.929688 194.855469 18.226562 L 194.453125 18.441406 C 194.320312 18.515625 194.1875 18.585938 194.058594 18.664062 L 193.28125 19.128906 C 193.023438 19.28125 192.769531 19.445312 192.519531 19.613281 L 191.765625 20.105469 L 191.035156 20.621094 C 190.792969 20.792969 190.550781 20.960938 190.308594 21.144531 L 189.601562 21.683594 L 189.25 21.957031 L 188.21875 22.800781 C 187.992188 22.988281 187.773438 23.1875 187.550781 23.382812 L 186.894531 23.96875 C 186.671875 24.164062 186.460938 24.371094 186.246094 24.570312 C 186.03125 24.765625 185.820312 24.972656 185.609375 25.175781 C 185.398438 25.375 185.195312 25.589844 184.988281 25.796875 C 183.339844 27.453125 181.804688 29.203125 180.378906 31.050781 C 182.226562 29.640625 184.070312 28.257812 185.960938 26.964844 C 186.203125 26.804688 186.429688 26.636719 186.671875 26.480469 C 186.910156 26.324219 187.148438 26.171875 187.386719 26.011719 C 187.621094 25.855469 187.855469 25.695312 188.101562 25.546875 L 188.828125 25.097656 C 189.792969 24.503906 190.769531 23.9375 191.757812 23.402344 C 192 23.265625 192.253906 23.148438 192.503906 23.019531 L 193.246094 22.636719 L 194.003906 22.285156 C 194.253906 22.164062 194.503906 22.042969 194.757812 21.941406 L 195.519531 21.613281 C 195.773438 21.503906 196.03125 21.414062 196.285156 21.308594 C 196.792969 21.101562 197.3125 20.9375 197.824219 20.757812 C 198.082031 20.667969 198.339844 20.597656 198.597656 20.515625 L 198.984375 20.394531 L 199.378906 20.289062 C 199.636719 20.226562 199.894531 20.152344 200.15625 20.089844 L 200.933594 19.921875 C 201.964844 19.714844 203.003906 19.582031 204.054688 19.519531 C 206.101562 19.394531 208.109375 19.625 210.078125 20.203125 C 211.042969 20.488281 211.972656 20.859375 212.875 21.308594 C 213.097656 21.417969 213.320312 21.542969 213.542969 21.65625 C 213.765625 21.769531 213.980469 21.910156 214.195312 22.035156 C 214.414062 22.160156 214.625 22.300781 214.839844 22.441406 L 215.152344 22.65625 C 215.257812 22.726562 215.363281 22.796875 215.464844 22.875 C 216.300781 23.472656 217.089844 24.125 217.835938 24.828125 C 218.210938 25.191406 218.578125 25.554688 218.925781 25.933594 C 219.273438 26.3125 219.625 26.703125 219.960938 27.105469 C 220.632812 27.910156 221.257812 28.75 221.839844 29.625 C 222.132812 30.058594 222.410156 30.503906 222.671875 30.957031 C 222.75 31.089844 222.828125 31.222656 222.902344 31.355469 C 222.367188 31.425781 221.835938 31.511719 221.300781 31.609375 C 220.523438 31.753906 219.742188 31.933594 218.964844 32.15625 C 218.578125 32.269531 218.1875 32.390625 217.800781 32.527344 C 217.40625 32.664062 217.019531 32.824219 216.640625 33 C 217.03125 33.148438 217.429688 33.277344 217.835938 33.382812 C 218.230469 33.488281 218.628906 33.582031 219.023438 33.664062 C 219.816406 33.824219 220.609375 33.945312 221.398438 34.027344 C 222.964844 34.1875 224.539062 34.238281 226.117188 34.171875 C 227.695312 34.117188 229.257812 33.949219 230.8125 33.664062 C 231.59375 33.519531 232.371094 33.339844 233.148438 33.117188 C 233.539062 33.003906 233.925781 32.878906 234.316406 32.742188 C 234.710938 32.605469 235.097656 32.449219 235.476562 32.269531 C 235.085938 32.117188 234.6875 31.992188 234.28125 31.886719 C 233.882812 31.777344 233.488281 31.683594 233.089844 31.601562 C 232.296875 31.441406 231.507812 31.320312 230.71875 31.238281 C 230.070312 31.167969 229.417969 31.117188 228.769531 31.097656 L 228.8125 30.960938 C 228.886719 30.71875 228.96875 30.460938 229.054688 30.210938 C 229.226562 29.703125 229.425781 29.195312 229.640625 28.695312 C 229.855469 28.191406 230.09375 27.699219 230.34375 27.207031 C 230.589844 26.714844 230.855469 26.238281 231.136719 25.757812 C 231.699219 24.808594 232.316406 23.894531 232.992188 23.019531 C 233.664062 22.144531 234.390625 21.3125 235.171875 20.53125 C 238.28125 17.382812 242.210938 15.023438 246.542969 13.515625 C 248.746094 12.753906 250.992188 12.175781 253.285156 11.785156 C 255.625 11.394531 257.984375 11.144531 260.355469 11.03125 C 262.746094 10.917969 265.160156 10.925781 267.585938 11.023438 C 270.011719 11.121094 272.449219 11.3125 274.90625 11.523438 C 272.585938 10.6875 270.222656 9.996094 267.820312 9.449219 Z M 267.820312 9.449219 " fill-opacity="1" fill-rule="nonzero"/></g><path fill="#000000" d="M 224.488281 76.492188 C 223.40625 76.242188 222.3125 76.0625 221.207031 75.949219 C 220.085938 75.839844 218.964844 75.816406 217.839844 75.878906 C 216.691406 75.941406 215.5625 76.117188 214.449219 76.398438 C 214.3125 76.433594 214.171875 76.472656 214.03125 76.511719 C 213.894531 76.554688 213.753906 76.59375 213.617188 76.640625 C 213.480469 76.6875 213.339844 76.726562 213.199219 76.777344 L 212.789062 76.925781 C 212.242188 77.136719 211.710938 77.378906 211.191406 77.652344 C 210.136719 78.210938 209.171875 78.898438 208.300781 79.710938 C 208.246094 79.761719 208.191406 79.8125 208.136719 79.867188 L 207.980469 80.023438 C 207.875 80.125 207.769531 80.238281 207.667969 80.34375 C 207.566406 80.449219 207.46875 80.566406 207.367188 80.675781 C 207.269531 80.785156 207.171875 80.902344 207.082031 81.019531 C 206.988281 81.132812 206.894531 81.25 206.804688 81.371094 C 206.757812 81.429688 206.710938 81.492188 206.667969 81.550781 L 206.539062 81.730469 C 206.492188 81.789062 206.453125 81.851562 206.410156 81.914062 L 206.289062 82.097656 C 206.207031 82.21875 206.125 82.351562 206.046875 82.476562 C 205.890625 82.734375 205.742188 82.992188 205.605469 83.257812 L 205.546875 83.371094 C 205.382812 83.164062 205.214844 82.960938 205.042969 82.765625 C 204.671875 82.34375 204.273438 81.941406 203.851562 81.570312 C 203.421875 81.191406 202.96875 80.847656 202.492188 80.535156 C 202.007812 80.21875 201.5 79.945312 200.972656 79.71875 C 199.339844 79.015625 197.648438 78.796875 195.894531 79.0625 C 195.339844 79.148438 194.796875 79.273438 194.257812 79.4375 C 193.734375 79.605469 193.222656 79.804688 192.726562 80.035156 C 192.484375 80.15625 192.234375 80.273438 192 80.398438 L 191.820312 80.496094 C 191.761719 80.527344 191.699219 80.558594 191.644531 80.59375 L 191.296875 80.800781 C 191.175781 80.867188 191.070312 80.941406 190.957031 81.011719 L 190.625 81.230469 L 190.296875 81.460938 C 190.191406 81.539062 190.078125 81.613281 189.976562 81.695312 L 189.660156 81.9375 L 189.503906 82.058594 L 189.351562 82.179688 L 189.046875 82.429688 C 188.945312 82.511719 188.847656 82.601562 188.75 82.6875 L 188.453125 82.949219 C 188.355469 83.035156 188.261719 83.128906 188.167969 83.21875 L 187.882812 83.488281 C 187.789062 83.578125 187.699219 83.671875 187.605469 83.765625 C 186.871094 84.5 186.1875 85.28125 185.550781 86.105469 C 186.371094 85.476562 187.191406 84.859375 188.035156 84.289062 C 188.140625 84.214844 188.242188 84.140625 188.351562 84.070312 C 188.457031 84.003906 188.5625 83.933594 188.667969 83.863281 C 188.773438 83.792969 188.878906 83.722656 188.984375 83.65625 L 189.308594 83.457031 C 189.738281 83.191406 190.175781 82.941406 190.613281 82.703125 C 190.722656 82.644531 190.835938 82.582031 190.945312 82.53125 L 191.277344 82.363281 L 191.613281 82.207031 C 191.726562 82.152344 191.835938 82.097656 191.949219 82.054688 L 192.289062 81.90625 C 192.402344 81.859375 192.515625 81.820312 192.628906 81.773438 C 192.855469 81.679688 193.085938 81.605469 193.316406 81.53125 C 193.429688 81.492188 193.546875 81.457031 193.660156 81.421875 L 193.832031 81.371094 L 194.007812 81.324219 C 194.128906 81.296875 194.238281 81.261719 194.351562 81.234375 L 194.703125 81.160156 C 195.160156 81.070312 195.621094 81.007812 196.089844 80.980469 C 197 80.925781 197.894531 81.027344 198.773438 81.285156 C 199.203125 81.414062 199.617188 81.578125 200.015625 81.777344 C 200.117188 81.828125 200.214844 81.882812 200.316406 81.933594 L 200.605469 82.101562 C 200.703125 82.164062 200.796875 82.222656 200.890625 82.285156 L 201.03125 82.378906 C 201.078125 82.410156 201.125 82.441406 201.171875 82.476562 C 201.542969 82.742188 201.894531 83.03125 202.226562 83.347656 C 202.394531 83.507812 202.558594 83.667969 202.710938 83.839844 C 202.863281 84.007812 203.023438 84.183594 203.171875 84.359375 C 203.46875 84.71875 203.75 85.09375 204.007812 85.480469 C 204.136719 85.675781 204.257812 85.871094 204.371094 86.074219 C 204.40625 86.132812 204.441406 86.195312 204.476562 86.25 C 204.234375 86.28125 203.996094 86.320312 203.761719 86.363281 C 203.417969 86.429688 203.070312 86.507812 202.722656 86.605469 C 202.550781 86.65625 202.375 86.710938 202.203125 86.769531 C 202.027344 86.832031 201.855469 86.902344 201.6875 86.980469 C 201.859375 87.046875 202.039062 87.105469 202.21875 87.152344 C 202.394531 87.199219 202.570312 87.242188 202.75 87.273438 C 203.101562 87.34375 203.453125 87.394531 203.804688 87.433594 C 205.210938 87.578125 206.609375 87.523438 208 87.273438 C 208.347656 87.207031 208.695312 87.128906 209.039062 87.03125 C 209.214844 86.980469 209.386719 86.925781 209.558594 86.867188 C 209.734375 86.804688 209.90625 86.734375 210.074219 86.652344 C 209.902344 86.585938 209.722656 86.53125 209.542969 86.484375 C 209.367188 86.4375 209.191406 86.394531 209.015625 86.363281 C 208.660156 86.289062 208.308594 86.242188 207.957031 86.199219 C 207.667969 86.167969 207.378906 86.148438 207.089844 86.136719 L 207.109375 86.074219 C 207.140625 85.964844 207.179688 85.855469 207.21875 85.742188 C 207.296875 85.515625 207.382812 85.289062 207.480469 85.066406 C 207.574219 84.84375 207.683594 84.621094 207.792969 84.402344 C 207.902344 84.183594 208.019531 83.96875 208.148438 83.757812 C 208.394531 83.335938 208.671875 82.929688 208.972656 82.539062 C 209.269531 82.148438 209.59375 81.78125 209.941406 81.429688 C 211.324219 80.027344 213.074219 78.980469 215.003906 78.308594 C 215.984375 77.96875 216.984375 77.710938 218.007812 77.535156 C 219.046875 77.363281 220.097656 77.25 221.152344 77.199219 C 222.21875 77.152344 223.292969 77.152344 224.371094 77.199219 C 225.453125 77.246094 226.539062 77.320312 227.632812 77.421875 C 226.605469 77.046875 225.554688 76.738281 224.488281 76.492188 Z M 224.488281 76.492188 " fill-opacity="1" fill-rule="nonzero"/></svg>