<svg xmlns="http://www.w3.org/2000/svg" xmlns:xlink="http://www.w3.org/1999/xlink" width="1000" zoomAndPan="magnify" viewBox="0 0 750 225" height="300" preserveAspectRatio="xMidYMid meet" version="1.2"><defs><clipPath id="9e9d76b30a"><path d="M 382.597656 29.746094 L 643.785156 29.746094 L 643.785156 191.921875 L 382.597656 191.921875 Z M 382.597656 29.746094 "/></clipPath><clipPath id="15ecdc4476"><path d="M 610 6.0625 L 708.195312 6.0625 L 708.195312 111.621094 L 610 111.621094 Z M 610 6.0625 "/></clipPath></defs><g id="4958139690"><g clip-rule="nonzero" clip-path="url(#9e9d76b30a)"><path style=" stroke:none;fill-rule:nonzero;fill:#000000;fill-opacity:1;" d="M 478.164062 35.449219 C 474.5 36.671875 470.792969 38.0625 467.355469 39.957031 L 467.28125 39.996094 C 466.621094 40.363281 465.8125 40.167969 465.445312 39.507812 C 465.074219 38.839844 465.34375 38.050781 466.007812 37.6875 L 466.082031 37.644531 C 469.664062 35.671875 473.496094 34.167969 477.316406 32.886719 C 478.039062 32.648438 478.898438 33.179688 479.136719 33.902344 C 479.351562 34.542969 479.070312 35.226562 478.5 35.542969 C 478.425781 35.582031 478.246094 35.421875 478.164062 35.449219 Z M 447.402344 55.363281 C 446.824219 54.871094 446.757812 54.003906 447.246094 53.425781 C 449.875 50.332031 452.824219 47.445312 456.015625 44.847656 C 456.601562 44.367188 457.46875 44.457031 457.949219 45.046875 C 458.429688 45.632812 458.339844 46.5 457.75 46.980469 C 454.691406 49.472656 451.863281 52.242188 449.339844 55.207031 C 449.230469 55.335938 449.101562 55.441406 448.960938 55.519531 C 448.472656 55.789062 447.851562 55.746094 447.402344 55.363281 Z M 501.417969 32.777344 C 497.609375 32.421875 493.675781 32.5 489.71875 33.003906 C 488.960938 33.101562 488.273438 32.566406 488.179688 31.816406 C 488.082031 31.0625 488.617188 30.375 489.371094 30.277344 C 493.523438 29.746094 497.667969 29.664062 501.671875 30.039062 C 502.429688 30.105469 502.988281 30.777344 502.917969 31.535156 C 502.875 32.003906 502.59375 32.398438 502.210938 32.609375 C 501.976562 32.738281 501.703125 32.800781 501.417969 32.777344 Z M 436.175781 76.464844 C 435.453125 76.234375 435.054688 75.457031 435.289062 74.734375 C 436.539062 70.859375 438.199219 67.078125 440.21875 63.488281 C 440.59375 62.828125 441.433594 62.589844 442.09375 62.964844 C 442.753906 63.335938 442.988281 64.175781 442.617188 64.835938 C 440.683594 68.265625 439.101562 71.878906 437.90625 75.582031 C 437.792969 75.925781 437.558594 76.199219 437.257812 76.363281 C 436.941406 76.535156 436.550781 76.585938 436.175781 76.464844 Z M 523.179688 40.503906 C 519.980469 38.308594 516.492188 36.539062 512.8125 35.242188 C 512.09375 34.992188 511.71875 34.207031 511.972656 33.492188 C 512.222656 32.773438 513.007812 32.394531 513.722656 32.648438 C 517.632812 34.027344 521.339844 35.90625 524.738281 38.234375 C 525.363281 38.664062 525.523438 39.519531 525.089844 40.144531 C 524.96875 40.328125 524.804688 40.472656 524.625 40.574219 C 524.183594 40.816406 523.625 40.808594 523.179688 40.503906 Z M 434.070312 100.265625 C 433.3125 100.332031 432.648438 99.765625 432.582031 99.011719 C 432.230469 94.886719 432.28125 90.757812 432.71875 86.746094 C 432.804688 85.988281 433.484375 85.445312 434.234375 85.527344 C 434.992188 85.609375 435.535156 86.289062 435.453125 87.042969 C 435.03125 90.882812 434.988281 94.832031 435.324219 98.777344 C 435.371094 99.335938 435.078125 99.847656 434.617188 100.101562 C 434.453125 100.191406 434.265625 100.25 434.070312 100.265625 Z M 540.507812 58.652344 C 539.84375 59.019531 538.796875 58.605469 538.429688 57.941406 L 538.304688 57.714844 C 536.398438 54.261719 534.222656 51.085938 531.792969 48.300781 C 531.292969 47.726562 531.375 46.847656 531.949219 46.347656 C 532.519531 45.847656 533.339844 45.933594 533.839844 46.507812 C 536.398438 49.441406 538.617188 52.820312 540.613281 56.445312 L 540.746094 56.675781 C 541.109375 57.339844 541.175781 58.285156 540.511719 58.648438 C 540.507812 58.648438 540.507812 58.652344 540.507812 58.652344 Z M 440.5625 123.3125 C 439.867188 123.613281 439.054688 123.296875 438.75 122.601562 C 437.085938 118.773438 435.722656 114.894531 434.707031 111.074219 C 434.511719 110.339844 434.949219 109.585938 435.679688 109.390625 C 436.417969 109.195312 437.167969 109.632812 437.363281 110.367188 C 438.347656 114.054688 439.664062 117.800781 441.273438 121.503906 C 441.558594 122.15625 441.292969 122.917969 440.675781 123.253906 C 440.640625 123.277344 440.601562 123.292969 440.5625 123.3125 Z M 548.5 80.976562 C 547.757812 81.128906 547.027344 80.660156 546.867188 79.917969 C 546.082031 76.234375 544.9375 72.433594 543.476562 68.625 C 543.199219 67.917969 543.550781 67.121094 544.261719 66.851562 C 544.96875 66.578125 545.769531 66.929688 546.042969 67.636719 C 547.554688 71.578125 548.738281 75.515625 549.554688 79.34375 C 549.6875 79.949219 549.394531 80.546875 548.878906 80.835938 C 548.761719 80.898438 548.636719 80.945312 548.5 80.976562 Z M 451.121094 143.535156 C 448.625 140.203125 446.339844 136.804688 444.335938 133.4375 C 443.945312 132.78125 444.160156 131.941406 444.8125 131.550781 C 445.472656 131.160156 446.308594 131.375 446.699219 132.027344 C 448.65625 135.3125 450.882812 138.628906 453.320312 141.890625 C 453.777344 142.496094 453.652344 143.359375 453.042969 143.8125 C 452.996094 143.855469 452.9375 143.886719 452.882812 143.917969 C 452.292969 144.242188 451.539062 144.09375 451.121094 143.535156 Z M 396.035156 178.574219 C 391.996094 178.636719 387.925781 178.609375 383.9375 178.503906 C 383.179688 178.484375 382.578125 177.851562 382.597656 177.09375 C 382.621094 176.335938 383.253906 175.734375 384.011719 175.753906 C 387.960938 175.859375 391.992188 175.886719 395.996094 175.828125 C 396.753906 175.8125 397.378906 176.421875 397.390625 177.179688 C 397.394531 177.707031 397.109375 178.167969 396.679688 178.402344 C 396.488281 178.511719 396.269531 178.570312 396.035156 178.574219 Z M 548.207031 104.832031 C 547.464844 104.675781 546.988281 103.949219 547.144531 103.207031 C 547.929688 99.433594 548.292969 95.519531 548.230469 91.570312 C 548.214844 90.808594 548.820312 90.183594 549.582031 90.171875 C 550.339844 90.160156 550.964844 90.765625 550.980469 91.523438 C 551.042969 95.679688 550.660156 99.800781 549.835938 103.765625 C 549.75 104.171875 549.492188 104.503906 549.152344 104.6875 C 548.875 104.84375 548.542969 104.902344 548.207031 104.832031 Z M 420.191406 177.242188 C 416.195312 177.625 412.136719 177.929688 408.125 178.148438 C 407.367188 178.195312 406.71875 177.613281 406.675781 176.855469 C 406.632812 176.097656 407.214844 175.449219 407.972656 175.40625 C 411.945312 175.1875 415.972656 174.882812 419.929688 174.507812 C 420.691406 174.433594 421.359375 174.988281 421.429688 175.746094 C 421.484375 176.308594 421.191406 176.824219 420.726562 177.078125 C 420.566406 177.167969 420.386719 177.226562 420.191406 177.242188 Z M 444.152344 173.964844 C 440.234375 174.667969 436.214844 175.304688 432.203125 175.851562 C 431.449219 175.953125 430.757812 175.429688 430.65625 174.675781 C 430.550781 173.921875 431.078125 173.230469 431.832031 173.128906 C 435.804688 172.582031 439.785156 171.953125 443.667969 171.257812 C 444.414062 171.125 445.128906 171.617188 445.261719 172.367188 C 445.371094 172.960938 445.078125 173.539062 444.574219 173.816406 C 444.445312 173.882812 444.304688 173.9375 444.152344 173.964844 Z M 467.246094 161.65625 C 464.265625 158.777344 461.433594 155.84375 458.824219 152.925781 C 458.320312 152.359375 458.367188 151.488281 458.933594 150.984375 C 459.5 150.480469 460.367188 150.527344 460.875 151.09375 C 463.4375 153.957031 466.222656 156.847656 469.15625 159.675781 C 469.703125 160.207031 469.714844 161.074219 469.1875 161.621094 C 469.089844 161.722656 468.980469 161.804688 468.863281 161.871094 C 468.351562 162.152344 467.691406 162.082031 467.246094 161.65625 Z M 537.851562 126.335938 C 537.234375 125.890625 537.097656 125.027344 537.546875 124.414062 C 539.910156 121.164062 541.90625 117.757812 543.488281 114.300781 C 543.804688 113.613281 544.617188 113.308594 545.308594 113.625 C 546 113.941406 546.304688 114.757812 545.988281 115.445312 C 544.332031 119.070312 542.242188 122.628906 539.773438 126.03125 C 539.648438 126.203125 539.492188 126.332031 539.320312 126.429688 C 538.871094 126.675781 538.296875 126.660156 537.851562 126.335938 Z M 467.757812 168.601562 C 463.941406 169.660156 459.992188 170.652344 456.011719 171.558594 C 455.273438 171.726562 454.539062 171.261719 454.367188 170.519531 C 454.203125 169.78125 454.667969 169.042969 455.40625 168.875 C 459.34375 167.984375 463.246094 167 467.015625 165.953125 C 467.75 165.75 468.507812 166.175781 468.710938 166.90625 C 468.886719 167.53125 468.597656 168.179688 468.050781 168.480469 C 467.960938 168.527344 467.863281 168.570312 467.757812 168.601562 Z M 520.59375 142.980469 C 520.136719 142.375 520.257812 141.511719 520.863281 141.054688 C 524.121094 138.585938 527.144531 135.988281 529.835938 133.332031 C 530.375 132.796875 531.246094 132.804688 531.777344 133.34375 C 532.3125 133.886719 532.308594 134.753906 531.765625 135.289062 C 528.988281 138.03125 525.875 140.710938 522.523438 143.246094 C 522.46875 143.289062 522.414062 143.324219 522.355469 143.355469 C 521.765625 143.683594 521.011719 143.53125 520.59375 142.980469 Z M 490.703125 160.832031 C 487.058594 162.3125 483.234375 163.730469 479.335938 165.046875 C 478.613281 165.289062 477.835938 164.902344 477.589844 164.183594 C 477.347656 163.464844 477.738281 162.683594 478.457031 162.441406 C 482.300781 161.144531 486.074219 159.746094 489.664062 158.285156 C 490.367188 158 491.167969 158.335938 491.457031 159.039062 C 491.71875 159.691406 491.449219 160.429688 490.847656 160.761719 C 490.800781 160.789062 490.75 160.8125 490.703125 160.832031 Z M 501.769531 155.871094 C 501.089844 156.207031 500.265625 155.925781 499.929688 155.246094 C 499.59375 154.5625 499.875 153.742188 500.558594 153.40625 C 504.214844 151.601562 507.738281 149.679688 511.015625 147.699219 C 511.660156 147.316406 512.511719 147.519531 512.902344 148.167969 C 513.296875 148.816406 513.085938 149.664062 512.4375 150.054688 C 510.957031 150.945312 509.425781 151.835938 507.871094 152.691406 C 505.90625 153.773438 503.855469 154.84375 501.769531 155.871094 Z M 485.804688 177.265625 C 483.378906 175.582031 480.941406 173.726562 478.558594 171.75 C 477.765625 171.09375 476.988281 170.441406 476.21875 169.789062 C 475.644531 169.296875 475.574219 168.425781 476.070312 167.851562 C 476.5625 167.269531 477.425781 167.203125 478.007812 167.695312 C 478.761719 168.339844 479.53125 168.988281 480.3125 169.632812 C 482.636719 171.5625 485.011719 173.367188 487.375 175.011719 C 487.996094 175.445312 488.152344 176.300781 487.71875 176.921875 C 487.59375 177.105469 487.433594 177.242188 487.253906 177.34375 C 486.8125 177.585938 486.246094 177.578125 485.804688 177.265625 Z M 634.832031 117.0625 C 634.207031 116.632812 634.050781 115.777344 634.484375 115.152344 C 638.671875 109.097656 641 105.164062 641.023438 105.128906 C 641.410156 104.476562 642.25 104.253906 642.90625 104.640625 C 643.558594 105.027344 643.777344 105.875 643.390625 106.527344 C 643.296875 106.691406 640.992188 110.574219 636.742188 116.714844 C 636.621094 116.898438 636.457031 117.039062 636.277344 117.136719 C 635.835938 117.382812 635.277344 117.371094 634.832031 117.0625 Z M 507.507812 188.320312 C 503.730469 187.066406 499.9375 185.472656 496.242188 183.570312 C 495.566406 183.226562 495.304688 182.394531 495.648438 181.71875 C 496 181.042969 496.824219 180.78125 497.503906 181.125 C 501.070312 182.960938 504.730469 184.5 508.371094 185.710938 C 509.09375 185.949219 509.480469 186.722656 509.242188 187.445312 C 509.128906 187.789062 508.898438 188.054688 508.605469 188.21875 C 508.277344 188.394531 507.882812 188.445312 507.507812 188.320312 Z M 620.167969 136.171875 C 619.585938 135.683594 619.503906 134.820312 619.988281 134.234375 C 622.511719 131.199219 625.019531 128.042969 627.445312 124.855469 C 627.90625 124.25 628.765625 124.132812 629.371094 124.589844 C 629.976562 125.050781 630.09375 125.910156 629.632812 126.515625 C 627.1875 129.738281 624.652344 132.929688 622.101562 135.992188 C 621.988281 136.125 621.855469 136.238281 621.710938 136.316406 C 621.226562 136.585938 620.613281 136.542969 620.167969 136.171875 Z M 531.640625 191.898438 C 527.550781 192.011719 523.4375 191.761719 519.414062 191.164062 C 518.664062 191.054688 518.144531 190.355469 518.257812 189.601562 C 518.371094 188.851562 519.070312 188.335938 519.820312 188.445312 C 523.683594 189.019531 527.632812 189.257812 531.566406 189.148438 C 532.324219 189.128906 532.957031 189.722656 532.980469 190.484375 C 532.996094 191.015625 532.703125 191.484375 532.269531 191.726562 C 532.082031 191.828125 531.871094 191.890625 531.640625 191.898438 Z M 603.792969 153.816406 C 603.261719 153.277344 603.269531 152.402344 603.8125 151.871094 C 606.585938 149.148438 609.378906 146.25 612.117188 143.261719 C 612.628906 142.699219 613.5 142.660156 614.058594 143.171875 C 614.621094 143.6875 614.65625 144.554688 614.144531 145.117188 C 611.375 148.140625 608.546875 151.074219 605.738281 153.832031 C 605.648438 153.921875 605.542969 154 605.4375 154.058594 C 604.910156 154.347656 604.234375 154.265625 603.792969 153.816406 Z M 585.5 169.4375 C 585.042969 168.832031 585.164062 167.96875 585.773438 167.511719 C 588.847656 165.195312 591.96875 162.667969 595.042969 159.996094 C 595.613281 159.496094 596.484375 159.558594 596.980469 160.128906 C 597.480469 160.703125 597.417969 161.570312 596.84375 162.070312 C 593.722656 164.785156 590.554688 167.355469 587.425781 169.710938 C 587.371094 169.75 587.320312 169.785156 587.261719 169.816406 C 586.671875 170.140625 585.917969 169.992188 585.5 169.4375 Z M 555.589844 187.316406 C 551.65625 188.695312 547.691406 189.78125 543.804688 190.535156 C 543.058594 190.679688 542.339844 190.195312 542.191406 189.449219 C 542.046875 188.703125 542.535156 187.984375 543.277344 187.835938 C 547.039062 187.105469 550.871094 186.058594 554.679688 184.722656 C 555.394531 184.472656 556.179688 184.851562 556.429688 185.566406 C 556.65625 186.210938 556.375 186.90625 555.800781 187.222656 C 555.734375 187.261719 555.664062 187.289062 555.589844 187.316406 Z M 571.355469 180.230469 C 569.855469 181.058594 568.335938 181.859375 566.835938 182.597656 C 566.152344 182.9375 565.332031 182.660156 564.996094 181.976562 C 564.652344 181.296875 564.957031 180.507812 565.632812 180.167969 C 567.097656 179.445312 568.617188 178.730469 570.085938 177.921875 C 570.085938 177.921875 570.089844 177.917969 570.089844 177.917969 C 572.058594 176.832031 574.027344 175.589844 576 174.351562 C 576.644531 173.949219 577.460938 174.082031 577.863281 174.726562 C 578.269531 175.367188 578.078125 176.222656 577.433594 176.628906 C 575.417969 177.894531 573.378906 179.117188 571.363281 180.226562 C 571.363281 180.226562 571.363281 180.230469 571.355469 180.230469 "/></g><g clip-rule="nonzero" clip-path="url(#15ecdc4476)"><path style=" stroke:none;fill-rule:nonzero;fill:#000000;fill-opacity:1;" d="M 708.167969 82.324219 C 708.144531 82.085938 708.101562 81.851562 708.046875 81.625 C 708.039062 81.597656 708.027344 81.570312 708.019531 81.539062 C 707.980469 81.398438 707.9375 81.261719 707.882812 81.125 C 707.792969 80.90625 707.6875 80.703125 707.5625 80.527344 L 701.449219 71.691406 C 701.472656 71.648438 701.496094 71.597656 701.515625 71.550781 L 703.234375 67.363281 C 703.355469 67.0625 703.378906 66.777344 703.363281 66.472656 C 703.316406 65.6875 702.808594 64.976562 702.035156 64.660156 L 701.253906 64.339844 C 700.476562 64.023438 699.605469 64.160156 699.019531 64.691406 C 698.792969 64.894531 698.597656 65.109375 698.472656 65.410156 L 697.960938 66.65625 L 692.601562 58.914062 C 692.621094 58.871094 692.644531 58.828125 692.660156 58.785156 L 694.347656 54.675781 C 694.789062 53.601562 694.273438 52.359375 693.195312 51.917969 L 692.414062 51.597656 C 691.828125 51.355469 691.191406 51.402344 690.664062 51.667969 C 690.652344 51.675781 690.632812 51.679688 690.621094 51.6875 C 690.59375 51.703125 690.566406 51.71875 690.539062 51.734375 C 690.398438 51.816406 690.265625 51.90625 690.148438 52.015625 C 690.152344 52.015625 690.152344 52.019531 690.160156 52.023438 C 689.949219 52.21875 689.773438 52.464844 689.65625 52.75 L 689.164062 53.949219 L 678.554688 38.625 L 685.984375 22.546875 C 686.671875 21.039062 687.089844 18.800781 687.199219 16.457031 C 687.199219 16.449219 687.199219 16.4375 687.199219 16.425781 C 687.222656 16.457031 687.234375 16.472656 687.234375 16.472656 C 687.226562 16.433594 687.210938 16.390625 687.203125 16.347656 C 687.234375 15.605469 687.234375 14.851562 687.203125 14.109375 C 687.046875 10.433594 686.105469 7.007812 684.234375 6.242188 C 682.371094 5.476562 679.300781 7.238281 676.613281 9.738281 C 676.066406 10.242188 675.535156 10.785156 675.03125 11.339844 C 674.988281 11.363281 674.949219 11.386719 674.90625 11.414062 C 674.90625 11.414062 674.929688 11.410156 674.972656 11.402344 C 674.972656 11.40625 674.96875 11.40625 674.96875 11.40625 C 673.390625 13.160156 672.105469 15.050781 671.535156 16.617188 L 665.523438 33.277344 L 647.214844 36.730469 L 647.703125 35.53125 C 647.820312 35.246094 647.867188 34.949219 647.859375 34.660156 C 647.863281 34.660156 647.867188 34.660156 647.875 34.664062 C 647.863281 34.503906 647.835938 34.351562 647.792969 34.203125 C 647.78125 34.167969 647.777344 34.132812 647.765625 34.097656 C 647.761719 34.085938 647.753906 34.070312 647.75 34.054688 C 647.558594 33.496094 647.140625 33.015625 646.550781 32.773438 L 645.769531 32.453125 C 644.695312 32.011719 643.453125 32.53125 643.011719 33.605469 L 641.328125 37.71875 C 641.308594 37.761719 641.296875 37.804688 641.28125 37.847656 L 632.019531 39.59375 L 632.53125 38.347656 C 632.65625 38.046875 632.667969 37.757812 632.652344 37.453125 C 632.605469 36.664062 632.085938 35.953125 631.3125 35.636719 L 630.527344 35.3125 C 629.753906 34.996094 628.894531 35.140625 628.304688 35.667969 C 628.082031 35.875 627.898438 36.09375 627.773438 36.394531 L 626.054688 40.582031 C 626.035156 40.628906 626.019531 40.679688 626.003906 40.726562 L 615.449219 42.71875 C 614.304688 42.933594 613.027344 43.996094 612.585938 45.070312 L 610.691406 49.6875 C 610.25 50.761719 610.820312 51.636719 611.984375 51.636719 L 658.882812 51.695312 L 644.875 90.523438 L 630.324219 94.117188 C 629.484375 94.324219 628.582031 94.9375 627.980469 95.652344 C 627.75 95.929688 627.5625 96.21875 627.445312 96.507812 C 627.023438 97.535156 627.652344 98.363281 628.851562 98.335938 L 643.070312 98.085938 C 643.003906 98.691406 642.960938 99.296875 642.945312 99.871094 C 642.910156 101.046875 643.613281 102.121094 644.703125 102.5625 C 645.789062 103.011719 647.042969 102.742188 647.84375 101.882812 C 648.226562 101.46875 648.613281 101.019531 648.988281 100.546875 L 658.871094 110.660156 C 659.703125 111.515625 660.734375 111.375 661.160156 110.34375 C 661.273438 110.058594 661.347656 109.71875 661.375 109.355469 C 661.453125 108.429688 661.238281 107.355469 660.789062 106.621094 L 653.015625 93.921875 L 670.347656 56.398438 L 703.761719 89.304688 C 704.589844 90.121094 705.609375 89.902344 706.050781 88.828125 L 706.46875 87.808594 L 706.894531 86.773438 L 707.949219 84.207031 C 708.167969 83.671875 708.238281 82.992188 708.167969 82.324219 "/></g><g style="fill:#000000;fill-opacity:1;"><g transform="translate(29.819576, 188.12157)"><path style="stroke:none" d="M 6.671875 -36.46875 L 6.515625 -57.25 L 13.1875 -57 L 12.4375 -8.09375 L 56.421875 -6.84375 C 57.316406 -6.5625 57.765625 -6.085938 57.765625 -5.421875 C 57.765625 -4.753906 57.34375 -4.0625 56.5 -3.34375 C 54.882812 -1.894531 53.050781 -1.171875 51 -1.171875 C 50.5 -1.171875 49.96875 -1.222656 49.40625 -1.328125 L 4.59375 -1.75 C 5.976562 -6.925781 6.671875 -18.5 6.671875 -36.46875 Z M 6.671875 -36.46875 "/></g></g><g style="fill:#000000;fill-opacity:1;"><g transform="translate(88.988575, 188.12157)"><path style="stroke:none" d="M 19.28125 -5.84375 C 24.175781 -5.84375 31.550781 -8.066406 41.40625 -12.515625 C 42.007812 -12.515625 42.503906 -12.304688 42.890625 -11.890625 C 43.285156 -11.472656 43.484375 -10.988281 43.484375 -10.4375 C 41.253906 -6.644531 36.992188 -3.691406 30.703125 -1.578125 C 24.421875 0.523438 18.554688 0.882812 13.109375 -0.5 C 6.929688 -2.113281 3.175781 -5.59375 1.84375 -10.9375 C 1.726562 -11.988281 1.671875 -13.40625 1.671875 -15.1875 C 1.671875 -16.96875 2.128906 -19.316406 3.046875 -22.234375 C 3.960938 -25.160156 5.53125 -27.929688 7.75 -30.546875 C 9.976562 -33.160156 12.59375 -35.21875 15.59375 -36.71875 C 18.601562 -38.226562 21.804688 -38.984375 25.203125 -38.984375 C 28.429688 -38.984375 32.050781 -37.867188 36.0625 -35.640625 C 37.945312 -34.578125 39.445312 -33.378906 40.5625 -32.046875 C 41.675781 -30.710938 42.234375 -29.351562 42.234375 -27.96875 C 42.234375 -27.570312 42.207031 -27.179688 42.15625 -26.796875 C 42.039062 -23.398438 40.394531 -21.253906 37.21875 -20.359375 C 35.832031 -19.972656 34.222656 -19.78125 32.390625 -19.78125 L 20.359375 -20.28125 C 16.359375 -20.28125 13.300781 -19.414062 11.1875 -17.6875 C 9.957031 -16.75 9.09375 -15.332031 8.59375 -13.4375 C 9.988281 -8.375 13.550781 -5.84375 19.28125 -5.84375 Z M 34.171875 -31.625 C 32.921875 -32.519531 31.628906 -33.160156 30.296875 -33.546875 C 28.960938 -33.941406 27.847656 -34.140625 26.953125 -34.140625 C 26.066406 -34.140625 24.617188 -33.847656 22.609375 -33.265625 C 20.609375 -32.679688 18.832031 -32.023438 17.28125 -31.296875 C 13.4375 -29.515625 11.515625 -27.648438 11.515625 -25.703125 C 15.972656 -25.316406 19.3125 -25.125 21.53125 -25.125 C 27.707031 -25.125 31.878906 -25.648438 34.046875 -26.703125 C 35.390625 -27.265625 36.0625 -27.960938 36.0625 -28.796875 C 36.0625 -29.796875 35.429688 -30.738281 34.171875 -31.625 Z M 34.171875 -31.625 "/></g></g><g style="fill:#000000;fill-opacity:1;"><g transform="translate(135.222179, 188.12157)"><path style="stroke:none" d="M 14.859375 -8.015625 L 15.03125 -21.375 C 15.03125 -23.476562 14.832031 -25.285156 14.4375 -26.796875 L 1.5 -26.796875 L 1.328125 -32.546875 L 13.859375 -32.546875 L 13.859375 -54.078125 C 14.023438 -54.585938 14.359375 -55.09375 14.859375 -55.59375 C 15.640625 -56.363281 16.289062 -56.75 16.8125 -56.75 C 17.34375 -56.75 17.800781 -56.691406 18.1875 -56.578125 C 18.582031 -56.472656 19.003906 -56.085938 19.453125 -55.421875 C 20.335938 -51.742188 20.78125 -46.207031 20.78125 -38.8125 C 20.78125 -36.976562 20.863281 -35.171875 21.03125 -33.390625 C 22.8125 -33.609375 24.59375 -33.71875 26.375 -33.71875 C 26.375 -33.71875 27.820312 -33.71875 30.71875 -33.71875 C 31.769531 -33.71875 32.742188 -33.773438 33.640625 -33.890625 L 33.390625 -27.875 L 21.203125 -28.21875 L 21.625 0.578125 C 20.613281 1.023438 19.75 1.25 19.03125 1.25 C 16.25 1.25 14.859375 -1.835938 14.859375 -8.015625 Z M 14.859375 -8.015625 "/></g></g><g style="fill:#000000;fill-opacity:1;"><g transform="translate(169.772201, 188.12157)"><path style="stroke:none" d="M 8.6875 -51.671875 C 10.019531 -51.671875 10.6875 -50.695312 10.6875 -48.75 C 10.6875 -46.46875 9.738281 -43.460938 7.84375 -39.734375 C 7.289062 -38.617188 6.765625 -37.671875 6.265625 -36.890625 L 2.25 -36.5625 L 6.921875 -51.25 C 7.585938 -51.53125 8.175781 -51.671875 8.6875 -51.671875 Z M 8.6875 -51.671875 "/></g></g><g style="fill:#000000;fill-opacity:1;"><g transform="translate(183.625591, 188.12157)"><path style="stroke:none" d="M 30.796875 -21.53125 C 36.921875 -21.53125 39.984375 -19.972656 39.984375 -16.859375 C 39.984375 -14.523438 38.285156 -11.800781 34.890625 -8.6875 C 29.828125 -4.0625 23.007812 -0.359375 14.4375 2.421875 C 14.050781 2.421875 13.617188 2.03125 13.140625 1.25 C 12.671875 0.46875 12.3125 -0.128906 12.0625 -0.546875 C 11.8125 -0.960938 11.628906 -1.222656 11.515625 -1.328125 C 17.910156 -3.441406 23.171875 -6.003906 27.296875 -9.015625 C 30.078125 -11.015625 31.46875 -12.65625 31.46875 -13.9375 C 31.46875 -15.21875 29.828125 -15.859375 26.546875 -15.859375 C 23.265625 -15.859375 18.453125 -15.078125 12.109375 -13.515625 C 9.210938 -13.628906 6.707031 -14.660156 4.59375 -16.609375 C 2.757812 -18.335938 1.84375 -20.078125 1.84375 -21.828125 C 1.84375 -23.578125 2.34375 -25.1875 3.34375 -26.65625 C 4.34375 -28.132812 5.675781 -29.515625 7.34375 -30.796875 C 9.007812 -32.078125 10.957031 -33.242188 13.1875 -34.296875 C 18.644531 -36.921875 24.289062 -38.234375 30.125 -38.234375 C 31.851562 -38.234375 33.523438 -38.0625 35.140625 -37.71875 C 36.472656 -37.71875 37.25 -37.132812 37.46875 -35.96875 C 37.695312 -34.800781 37.8125 -32.882812 37.8125 -30.21875 C 34.53125 -31.71875 30.828125 -32.46875 26.703125 -32.46875 C 21.585938 -32.46875 17.359375 -31.4375 14.015625 -29.375 C 10.566406 -27.375 8.789062 -24.757812 8.6875 -21.53125 C 8.6875 -19.976562 9.828125 -19.203125 12.109375 -19.203125 L 18.203125 -19.859375 C 23.429688 -20.972656 27.628906 -21.53125 30.796875 -21.53125 Z M 30.796875 -21.53125 "/></g></g><g style="fill:#000000;fill-opacity:1;"><g transform="translate(226.521029, 188.12157)"><path style="stroke:none" d=""/></g></g><g style="fill:#000000;fill-opacity:1;"><g transform="translate(260.737247, 188.12157)"><path style="stroke:none" d="M 7.84375 -13.859375 C 4.726562 -14.296875 3.171875 -15.019531 3.171875 -16.03125 C 3.171875 -16.75 3.695312 -17.582031 4.75 -18.53125 C 5.8125 -19.476562 6.867188 -20.453125 7.921875 -21.453125 C 7.921875 -24.785156 7.421875 -28.523438 6.421875 -32.671875 C 5.421875 -36.816406 4.695312 -40.03125 4.25 -42.3125 C 3.8125 -44.59375 3.59375 -46.679688 3.59375 -48.578125 C 3.59375 -50.472656 3.882812 -51.671875 4.46875 -52.171875 C 5.050781 -52.671875 5.898438 -52.921875 7.015625 -52.921875 C 8.128906 -52.921875 8.851562 -52.765625 9.1875 -52.453125 C 9.519531 -52.148438 9.738281 -51.773438 9.84375 -51.328125 C 9.957031 -50.878906 10.023438 -50.40625 10.046875 -49.90625 C 10.078125 -49.40625 10.175781 -48.9375 10.34375 -48.5 C 10.625 -47.4375 11.488281 -46.90625 12.9375 -46.90625 C 16.664062 -46.957031 20.394531 -47.273438 24.125 -47.859375 C 27.851562 -48.453125 31.550781 -49.050781 35.21875 -49.65625 C 42.5625 -50.882812 47.722656 -51.5 50.703125 -51.5 C 53.679688 -51.5 56.035156 -51.414062 57.765625 -51.25 C 57.816406 -50.1875 57.925781 -49.265625 58.09375 -48.484375 C 58.257812 -47.710938 58.34375 -47.078125 58.34375 -46.578125 C 58.34375 -45.628906 57.425781 -45.296875 55.59375 -45.578125 C 26.488281 -44.515625 11.9375 -42.34375 11.9375 -39.0625 C 11.9375 -35.445312 12.1875 -32.34375 12.6875 -29.75 C 13.1875 -27.164062 13.5625 -25.539062 13.8125 -24.875 C 14.0625 -24.207031 14.351562 -23.875 14.6875 -23.875 C 17.863281 -23.875 21.078125 -24.148438 24.328125 -24.703125 C 27.585938 -25.265625 30.84375 -25.863281 34.09375 -26.5 C 37.351562 -27.132812 40.625 -27.726562 43.90625 -28.28125 C 47.1875 -28.84375 50.410156 -29.125 53.578125 -29.125 C 53.640625 -29.125 53.671875 -28.914062 53.671875 -28.5 C 53.671875 -28.082031 53.640625 -27.625 53.578125 -27.125 C 53.410156 -25.789062 53.410156 -25.125 53.578125 -25.125 C 51.191406 -23.789062 46.851562 -22.707031 40.5625 -21.875 C 37.832031 -21.476562 35.050781 -21.113281 32.21875 -20.78125 C 29.382812 -20.445312 26.769531 -20.085938 24.375 -19.703125 C 18.863281 -18.921875 15.660156 -17.890625 14.765625 -16.609375 L 13.859375 -0.25 C 13.242188 0.363281 12.546875 0.671875 11.765625 0.671875 L 8.6875 0.421875 C 8.40625 0.421875 8.125 0.421875 7.84375 0.421875 Z M 7.84375 -13.859375 "/></g></g><g style="fill:#000000;fill-opacity:1;"><g transform="translate(319.906233, 188.12157)"><path style="stroke:none" d="M 3.75 -32.375 C 3.644531 -35.382812 3.535156 -38.070312 3.421875 -40.4375 C 3.304688 -42.800781 3.234375 -44.550781 3.203125 -45.6875 C 3.179688 -46.832031 2.726562 -49.628906 1.84375 -54.078125 C 2.34375 -54.753906 2.828125 -55.394531 3.296875 -56 C 3.765625 -56.613281 4.445312 -56.921875 5.34375 -56.921875 C 7.289062 -56.921875 8.789062 -48.710938 9.84375 -32.296875 C 10.40625 -22.785156 10.6875 -13.269531 10.6875 -3.75 C 10.6875 -1.195312 8.90625 0.078125 5.34375 0.078125 L 4.671875 0 C 4.671875 -2.894531 4.585938 -6.59375 4.421875 -11.09375 C 4.253906 -15.601562 4.128906 -19.523438 4.046875 -22.859375 C 3.960938 -26.203125 3.863281 -29.375 3.75 -32.375 Z M 3.75 -32.375 "/></g></g><g style="fill:#000000;fill-opacity:1;"><g transform="translate(333.342339, 188.12157)"><path style="stroke:none" d="M 19.859375 31.46875 C 18.691406 34.082031 17.300781 35.390625 15.6875 35.390625 C 14.90625 35.390625 14.332031 35.039062 13.96875 34.34375 C 13.613281 33.644531 13.601562 32.828125 13.9375 31.890625 C 15.164062 26.710938 16.929688 20.8125 19.234375 14.1875 C 21.546875 7.5625 23.09375 3.109375 23.875 0.828125 C 21.925781 -1.117188 18.863281 -5.007812 14.6875 -10.84375 C 6.125 -22.863281 1.84375 -29.457031 1.84375 -30.625 C 1.84375 -30.6875 1.867188 -30.742188 1.921875 -30.796875 L 5.09375 -33.96875 C 9.488281 -29.90625 15.21875 -23.003906 22.28125 -13.265625 C 24.0625 -10.816406 25.484375 -8.757812 26.546875 -7.09375 C 27.710938 -9.425781 28.628906 -11.441406 29.296875 -13.140625 C 29.960938 -14.835938 30.503906 -16.203125 30.921875 -17.234375 C 31.335938 -18.265625 31.910156 -19.644531 32.640625 -21.375 C 34.523438 -25.988281 37.140625 -31.859375 40.484375 -38.984375 C 40.984375 -39.203125 41.507812 -39.3125 42.0625 -39.3125 C 43.457031 -39.3125 44.460938 -38.953125 45.078125 -38.234375 C 45.296875 -37.953125 45.40625 -37.628906 45.40625 -37.265625 C 45.40625 -36.898438 45.347656 -36.550781 45.234375 -36.21875 Z M 19.859375 31.46875 "/></g></g></g></svg>